<?xml version="1.0" encoding="utf-8"?>
<svg width="100%" height="100%" viewBox="0 0 1200 1080" version="1.1" xmlns="http://www.w3.org/2000/svg" style="fill-rule:evenodd;clip-rule:evenodd;stroke-linejoin:round;stroke-miterlimit:2;">
  <path d="M 0 0 H 1200 V 1080 H 0 V 0 Z" id="Artboard1" style="fill:rgb(46,46,46);"/>
  <path d="M 502.348 798.743 L 502.348 764.407 L 522.668 764.407 L 522.434 769.446 L 508.652 769.446 L 508.652 779.196 L 521.754 779.196 L 521.754 784.189 L 508.652 784.189 L 508.652 798.743 L 502.348 798.743 Z" style="fill: white; fill-rule: nonzero; stroke-width: 1;"/>
  <path d="M 528.199 798.743 L 528.199 764.407 L 549.012 764.407 L 548.754 769.446 L 534.551 769.446 L 534.551 778.306 L 548.051 778.306 L 548.051 783.345 L 534.551 783.345 L 534.551 793.681 L 549.269 793.681 L 549.059 798.743 L 528.199 798.743 Z" style="fill: white; fill-rule: nonzero; stroke-width: 1;"/>
  <path d="M 551.238 798.743 L 563.262 781.165 L 552.129 764.407 L 559.277 764.407 L 567.363 777.204 L 575.684 764.407 L 582.457 764.407 L 571.09 781.259 L 583.066 798.743 L 575.73 798.743 L 567.059 785.384 L 558.199 798.743 L 551.238 798.743 Z" style="fill: white; fill-rule: nonzero; stroke-width: 1;"/>
  <path d="M 584.473 783.532 H 597.036 V 788.313 H 584.473 V 783.532 Z" style="fill: white; fill-rule: nonzero; stroke-width: 1;"/>
  <path d="M 602.402 798.743 L 602.402 764.407 L 623.215 764.407 L 622.957 769.446 L 608.754 769.446 L 608.754 778.306 L 622.254 778.306 L 622.254 783.345 L 608.754 783.345 L 608.754 793.681 L 623.473 793.681 L 623.262 798.743 L 602.402 798.743 Z" style="fill: white; fill-rule: nonzero; stroke-width: 1;"/>
  <path d="M 629.402 798.743 L 629.402 764.407 L 636.902 764.407 L 647.285 789.204 L 657.738 764.407 L 665.144 764.407 L 665.144 798.743 L 659.285 798.743 L 659.285 781.775 L 659.473 772.048 L 658.605 774.626 L 649.816 796.4 L 644.379 796.4 L 635.777 774.509 L 634.91 771.931 L 635.121 781.868 L 635.121 798.743 L 629.402 798.743 Z" style="fill: white; fill-rule: nonzero; stroke-width: 1;"/>
  <path d="M 685.957 799.236 C 681.457 799.236 678.043 798.114 675.715 795.872 C 673.387 793.63 672.223 790.47 672.223 786.392 L 672.223 764.407 L 678.598 764.407 L 678.598 785.853 C 678.598 788.712 679.18 790.798 680.344 792.111 C 681.508 793.423 683.418 794.079 686.074 794.079 C 688.684 794.079 690.574 793.419 691.746 792.099 C 692.918 790.779 693.504 788.689 693.504 785.829 L 693.504 764.407 L 699.855 764.407 L 699.855 786.439 C 699.855 790.486 698.668 793.63 696.293 795.872 C 693.918 798.114 690.473 799.236 685.957 799.236 Z" style="fill: white; fill-rule: nonzero; stroke-width: 1;"/>
  <path d="M 424.617 630.087 L 424.617 384.617 L 706.048 332.764 L 725.709 352.424 C 712.971 379.246 702.28 393.961 711.266 415.633 L 711.266 415.65 C 720.218 437.254 738.003 440.068 766.154 450.077 L 766.154 505.186 C 738.309 515.093 720.218 517.975 711.232 539.647 C 702.246 561.353 713.005 576.188 725.691 602.839 L 686.729 641.819 C 659.822 629.03 645.192 618.373 623.674 627.308 L 623.656 627.308 C 601.882 636.379 599.017 654.351 589.094 682.247 L 533.984 682.247 C 524.043 654.283 521.212 636.328 499.557 627.359 L 499.54 627.359 C 477.834 618.356 462.965 629.132 436.331 641.802 L 424.617 630.087 Z M 561.539 545.837 C 599.205 545.837 629.744 515.298 629.744 477.632 C 629.744 439.965 599.205 409.426 561.539 409.426 C 523.872 409.426 493.333 439.965 493.333 477.632 C 493.333 515.298 523.872 545.837 561.539 545.837 Z" style="fill: white; stroke-width: 17.051;"/>
  <path d="M 775.383 320.002 L 775.383 720.001 L 424.614 667.694 L 424.614 384.617 L 775.383 320.002 Z M 770.051 326.408 L 429.947 389.057 L 429.947 663.097 L 770.051 713.813 L 770.051 326.408 Z" style="fill: white; stroke-width: 3.077;"/>
</svg>