<?xml version="1.0" encoding="utf-8"?>
<svg width="100%" height="100%" viewBox="0 0 1200 1080" version="1.1" xmlns="http://www.w3.org/2000/svg" style="fill-rule:evenodd;clip-rule:evenodd;stroke-linejoin:round;stroke-miterlimit:2;">
  <path d="M 0 0 H 1200 V 1080 H 0 V 0 Z" style="fill:rgb(46,46,46);"/>
  <path d="M 600 170 L 900 318 C 920 328 932 350 927 372 L 813 778 C 809 797 798 813 782 824 L 628 936 C 611 949 589 949 572 936 L 418 824 C 402 813 391 797 387 778 L 273 372 C 268 350 280 328 300 318 L 600 170 Z" style="fill:white;"/>
  <path d="M 600 320 L 680 458 L 628 760 L 572 760 L 520 458 L 600 320 Z" style="fill:rgb(46,46,46);"/>
  <path d="M 505 742 L 565 752 L 592 786 L 565 820 L 474 812 L 450 780 L 474 748 L 505 742 Z" style="fill:rgb(46,46,46);"/>
  <path d="M 695 742 L 726 748 L 750 780 L 726 812 L 635 820 L 608 786 L 635 752 L 695 742 Z" style="fill:rgb(46,46,46);"/>
  <path d="M 580 806 L 620 806 L 632 874 L 600 898 L 568 874 L 580 806 Z" style="fill:rgb(46,46,46);"/>
</svg>
